<?xml version="1.0" encoding="utf-8"?>
<!-- Generator: Adobe Illustrator 23.0.5, SVG Export Plug-In . SVG Version: 6.00 Build 0)  -->
<svg version="1.1" id="Capa_1" xmlns="http://www.w3.org/2000/svg" xmlns:xlink="http://www.w3.org/1999/xlink" x="0px" y="0px"
	 viewBox="0 0 24 21.7" style="enable-background:new 0 0 24 21.7;" xml:space="preserve">
<style type="text/css">
	.st0{fill:none;stroke:#000000;stroke-linecap:round;stroke-linejoin:round;}
</style>
<title>hammer-1</title>
<path class="st0" d="M13.6,10.9l-9.7,9.7c-0.8,0.8-2.1,0.8-2.8,0s-0.8-2.1,0-2.8l9.7-9.7"/>
<path class="st0" d="M22.1,7.4c-0.2-0.2-0.5-0.2-0.7,0c0,0,0,0,0,0c-0.6,0.6-1.5,0.6-2.1,0C18.9,7,18.7,6.3,19,5.8
	C19.1,5.4,19,5,18.7,4.7c-0.8-0.8-2.3-2.3-2.3-2.3C13.8,0,9.9-0.1,7,2C6.8,2.2,6.8,2.5,6.9,2.7C7,2.9,7.2,2.9,7.4,2.9
	c1.5-0.1,3,0.5,4.1,1.6c0.7,0.7,1.3,1.5,0.6,2.2l-1.3,1.3l2.8,2.8L15,9.5c0.6-0.6,1.5-0.6,2.1,0s0.6,1.5,0,2.1l0,0
	c-0.2,0.2-0.2,0.5,0,0.7c0,0,0,0,0,0l1.1,1.1c0.4,0.4,1,0.4,1.4,0c0,0,0,0,0,0l3.5-3.5c0.4-0.4,0.4-1,0-1.4c0,0,0,0,0,0L22.1,7.4z"
	/>
<line class="st0" x1="21.4" y1="7.4" x2="17.2" y2="11.6"/>
</svg>
